<svg width="800" height="600" viewBox="0 0 800 600" fill="none" xmlns="http://www.w3.org/2000/svg">
  <rect width="800" height="600" fill="#E6DED0" opacity="0.1"/>
  <path d="M150 100C180 120 200 180 160 220C120 260 80 200 150 100Z" stroke="#3D2B1F" stroke-width="2" fill="rgba(61, 43, 31, 0.05)" stroke-linejoin="round"/>
  <path d="M600 150C580 200 620 250 680 220C740 190 700 120 600 150Z" stroke="#3D2B1F" stroke-width="2" fill="rgba(61, 43, 31, 0.05)" stroke-linejoin="round"/>
  <path d="M380 280 L420 260 L440 300 L400 320 Z" stroke="#8A3C23" stroke-width="3" fill="rgba(138, 60, 35, 0.1)"/>
  <circle cx="410" cy="290" r="4" fill="#8A3C23"/>
  <text x="420" y="280" font-family="Courier New, monospace" font-size="10" fill="#8A3C23" letter-spacing="2">PTEROS</text>
  <line x1="100" y1="500" x2="700" y2="100" stroke="#3D2B1F" stroke-width="0.5" stroke-dasharray="4 4" opacity="0.4"/>
  <line x1="200" y1="100" x2="600" y2="500" stroke="#3D2B1F" stroke-width="0.5" stroke-dasharray="4 4" opacity="0.4"/>
  <circle cx="400" cy="300" r="180" stroke="#3D2B1F" stroke-width="0.5" opacity="0.3"/>
  <path d="M50 300 Q 200 250 350 350 T 650 300" stroke="#3D2B1F" stroke-width="1" fill="none" stroke-linecap="round" stroke-dasharray="2 4"/>
</svg>
