<svg width="512" height="512" viewBox="0 0 512 512" fill="none" xmlns="http://www.w3.org/2000/svg">
  <path d="M256 128C220 128 150 160 100 220C80 244 40 260 20 250C50 280 120 280 160 270C180 300 200 340 210 360L230 380L250 360C260 340 280 300 300 270C340 280 410 280 440 250C420 260 380 244 360 220C310 160 240 128 204 128H256Z" fill="#0c0a09"/>
  <path d="M230 380L230 420L210 440M230 380L230 420L250 440" stroke="#0c0a09" stroke-width="10"/>
  <path fill-rule="evenodd" clip-rule="evenodd" d="M480 200C400 220 350 260 300 260C320 220 360 160 420 120C440 100 480 80 500 80C490 120 480 160 480 200ZM32 200C112 220 162 260 212 260C192 220 152 160 92 120C72 100 32 80 12 80C22 120 32 160 32 200Z" fill="#0c0a09"/>
  <path d="M256 180L240 140L200 130L256 180Z" fill="#0c0a09"/>
</svg>
